<?xml version="1.0" encoding="utf-8"?>
<!-- Generator: Adobe Illustrator 21.0.2, SVG Export Plug-In . SVG Version: 6.00 Build 0)  -->
<svg version="1.1" id="Layer_1" xmlns="http://www.w3.org/2000/svg" xmlns:xlink="http://www.w3.org/1999/xlink" x="0px" y="0px"
	 viewBox="0 0 864 864" style="enable-background:new 0 0 864 864;" xml:space="preserve">
<style type="text/css">
	.st0{fill:#FFFFFF;}
</style>
<path id="qg7V6Q_1_" class="st0" d="M436.7,613.8c-8.5-0.1-16.9-1-24.9-2.3c-6.3-1.1-12.5-2.3-18.6-4.2c-14.2-4.5-27.3-12.2-37-23.8
	c-1.4-1.6-2.6-3.2-4.3-4.6c-3.5-2.9-7.5-5-11.3-7.5c-11.3-7.8-19.1-20.5-20-34.2c-1-16.1,1.2-32.2,5-47.8c4.8-19.8,0.8-35.6-11.4-51
	c-14.7-18.5-20.7-39.9-19.9-63.7c0.7-21,0.6-42-7.2-62.2c-3.1-7.9-8.4-15.6-17.2-17.3c-7.5-1.5-14.9,1.3-21.9,3.9
	c-7.2,2.7-14.6,4.7-22.1,6.3c-12.5,2.6-23.9-1.2-33.8-9c-10.2-8-22.4-13.4-35.3-15.1c-16.8-2.3-31.2-11.6-45.1-20.7
	c-13.1-8.5-28.9-19.5-36.4-33.6c-5.8-11-7.6-23.5-3.4-35.3c5.6-15.5,19.6-26.4,32.8-35.3c12.7-8.5,26.4-14.6,40.9-19.3
	c10.4-3.4,21.3-5.4,32.3-4.9c11.2,0.6,21.2,4.4,31.2,9.3c21.5,10.5,42.7,22.1,67.7,22.7c10,0.2,20.6-1.2,28.8-7.5
	c12.3-9.3,13.7-24.7,20.7-37.3c5.4-9.6,12.4-18.3,20.4-26c15.2-14.8,34.5-29.1,54.6-36.1c15.1-5.3,31.5-7,47.4-4.6
	c13.7,2,25.4,8.6,36.3,17.1c11.3,8.9,21.5,19.2,33.1,27.7c3.9,2.9,8,5.5,11.6,8.8c6.6,6,11.3,13.7,15.5,21.5
	c3.2,5.9,6.3,12,8.9,18.2c2.4,5.8,4.1,11.6,7.6,17c5.3,8,11.2,9.4,20,5.7c22.4-9.5,44.5-20,67.5-27.6c23-7.7,45.3-2.6,66.3,9.8
	c21,12.5,36.2,30.3,48.4,51c6.2,10.5,0.7,25.5-7.7,33c-4.4,3.9-9.7,6.6-15.3,8.5c-7.7,2.6-15.9,3.6-23.7,5.7
	c-12.3,3.3-21,9.8-27.3,20.8c-5.3,9.3-9.4,20.7-19.3,26.2c-5.7,3.2-12.6,3.7-19,2.8c-14.4-2-28.8-9-42.1-14.6
	c-4.7-2-9.8-4.1-14.8-2.7c-7.8,2.2-12.6,12.5-16,19.2c-4.3,8.6-7.2,18-8.6,27.5c-2.1,14.8,0.4,29.9,3,44.5c4.3,24.1,0,47-9.2,69.2
	c-5.8,14-11.9,27.9-17.8,41.8c-4.3,10.1-4.1,20.4-1.9,30.9c1.9,9.1,4.5,18.3,5.1,27.6c0.5,8.5-1.2,16.5-4.6,24.3
	c-3.2,7.4-10.8,11.8-17.4,15.8c-7.6,4.6-14.7,10-22.2,14.8C485.1,609.3,460.5,614.2,436.7,613.8z M390.1,87.1
	c-8.6,5.1-16.5,11.4-22.1,19.6c-11.7,17.2-11.9,39.7-20.6,58.6c-6.7,14.5-18.6,27.5-19.2,43.5c-0.6,18.3,13.6,33.2,24.5,48
	c24.7,33.9,34.1,76.9,35.5,118.9c0.8,23.8-1.1,48.6-12.1,69.7c-8.6,16.4-22.4,29.9-29.4,47.1c-7.4,18-6.4,39.2,2.5,56.5
	c2.6,4.9,6,9.8,11.2,11.8c5.1,2.1,12.2,0.1,13.9-5.2c0.9-2.8,0.2-5.9-0.7-8.8c-4.1-14.3-10.3-28.1-11.3-43
	c-1-14.8,4.9-31.5,18.5-37.5c13.5-6,28.8,0.3,43.3,3c13.6,2.5,27.7,1.6,40.9-2.5c9.8-3.1,19.9-7.9,29.8-5.4
	c13.7,3.5,19.7,18.6,23.3,30.8c4.6,15.1,0.8,33.3-7.2,46.5c-1.1,1.8-2.3,3.6-3.7,5.3c-1.4,1.9-3.1,3.8-3.6,6.1
	c-1.5,6.4,6.8,11.8,13.1,9.8s10.2-8.3,12.5-14.5c11.1-30.7-4.5-63.8-14.6-94.8c-9.8-30.2-14.6-61.8-16.7-93.4
	c-1.1-16.9-1.5-34.3,3.9-50.4c6.8-20.3,22-36.5,33.5-54.6c11.4-18.1,19-41.6,9.2-60.6c-6.4-12.4-19.3-20.6-25.7-33
	c-6.2-12-5.8-26.5-11.5-38.7c-6.4-13.7-19.5-22.8-32-31.3c-11.3-7.6-23.1-15.4-36.7-16.6c-11.4-1-22.7,2.8-33.2,7.3
	C400.3,81.7,395.1,84.2,390.1,87.1z M287,249c16.4-25.3,14.2-48.2-1-56.8c-27.1-15.4-46.2-20.7-75.1-32.4
	c-13.2-5.3-27.1-10.9-41-11.7c-26.2-1.6-48.4,10.5-67.8,27.5c-4.2,3.6-7.2,8.6-10.8,12.9c15.8-8,38.6-13.4,59.4-10.7
	c-9.6,2.4-15.5,3.9-20.3,10.8c6-2.6,45-11.8,80-5.9c-10.9,0.5-17,3.6-22.6,8.3c16.5-3.7,51.6,0.7,85,13.7c9.6,3.3,14,8.9,14.4,19.9
	C287.7,234.1,288,240.3,287,249z M647.2,184.2c10.5,4.4,35.9,9,45.9,5c-5-2.4-7.9-3.9-10.9-5.3c18.4-3.8,33.4,5.3,51.2,12.3
	c-14.7-17.7-31.5-28.4-51.7-32.7c-32.9-7-62.6,2.8-90.1,20.2c-32.4,22.2-0.6,52.6,2.6,66.3c1.3-15.8,1.6-30.3-6.8-43.6
	c14.5,3.1,27,1.6,40.3-4.8c-5-2.5-12-7.7-11.8-8.5c31.3,6.1,41.8,6.6,55,4.5C662.9,195.3,656.1,192.7,647.2,184.2z M510.9,381.6
	c2.4-19.6,0-42,27-56.2c21.5-11,30.3-21.8,31.3-34.4c0.7-8.7-2.8-21.9-13.1-23c-3.8-0.4-7.6,0.7-11.1,2.3
	c-20.6,9.3-32.3,27.1-35.1,49.3C507.5,339.9,509.5,368.3,510.9,381.6z M363.7,380.6c0.3-22.6,0.5-45.1-5.3-67.3
	c-4.1-15.9-11.3-30-24.8-39.4c-5.7-3.9-13.7-9.2-20.5-4.8c-11.4,7.4-11.4,22.1-7,33.6c5.2,13.6,19.2,21,29.5,30.4
	c11.4,10.4,18.1,22.9,24.6,36.6C361.8,373.3,363.8,376.5,363.7,380.6z M366,576.8c5.7,3.1,23.7,9.7,29.7,12.2
	c16.8,7,34.8,7.1,52.6,6.5c8.8-0.3,17.7-1.9,26.3-4c9.3-2.2,18.2-5.6,27.4-8.5c4.7-1.5,13-7.4,19.8-9.6
	C494.6,576,434.1,584.5,366,576.8z M390.3,471.8c3.8,7,30.9,21.9,54.1,21.9c17.1,0,35.6-9.5,44.5-22.4
	C468.7,481.6,422.1,484.6,390.3,471.8z M502.6,482.8c-0.9,3.5-1.2,7.3-2.7,10.4c-4,8.4-7.7,16.9-13.1,24.5c-0.8,1.1-1.6,2.3-2.7,3.1
	c-5.8,4.4-15.1-2.1-15.5-8.6c-0.1-2.8,1.4-5.4,3.4-7.3c3.5-3.3,8.4-4.4,12.3-6.9c3.6-2.3,6.7-5.1,11.7-9c-9.7,3.6-17.1,5.9-24.1,9.2
	c-6.3,2.9-9.5,10.4-8.4,17.1c2.2,12.9,17.9,16.7,27.9,10c6-4,10.7-11,12.6-18c1.1-3.9,1.4-8.1,1.1-12.1c-0.2-2.2-0.5-4.3-0.9-6.4
	C504,487.5,502.3,484.1,502.6,482.8z M386.2,489.7c0.9,1.5,1.4,3.4,2.6,4.1c5.5,3.3,11.8,5.6,16.7,9.5c3.4,2.8,7.2,7.8,7,11.6
	c-0.2,3-5.8,6.9-9.7,8.2c-7.1,2.4-13.5-1.2-16.3-7.6c-3.4-7.9-4.9-16.5-7.2-24.6c-0.1,0.2-1.4,1.2-1.7,2.5
	c-3.7,12.6,8.6,34.1,21.2,37.1c8.6,2.1,17.4-4.4,19.8-14.7c1.9-8-3.2-15.2-11.5-17.7C400.1,496.1,393.7,492.8,386.2,489.7z
	 M256.8,339.8c-5.8,11.6-16.5,19.6-23.8,30.2c-6.8,9.9-11.8,21-13,33c-0.9,9.3,0.3,18.7,1.6,27.9c1.2,8.6,2,17.3,3.2,26
	c4.3,30.8,14.9,59.2,31.6,85.4c10.6,16.7,20.7,33.7,26.7,52.9c5.1,16.5,4.3,33.2,4.1,50c-0.2,22.3,7.4,41.2,27.3,52.3
	c12.1,6.8,25.7,12.5,39.3,14.9c31.1,5.5,57.2,19.8,79.3,41.5c12.4,12.1,23.1,25.9,34.6,38.9c4,4.5,8.3,8.4,14.7,8.6
	c6.1,0.2,11.4-3.2,15.6-7.3c3.5-3.5,6.4-7.4,9.2-11.5c20.5-30.5,28.9-68.1,40.2-102.6c3.8-11.8,8.5-23.6,14.5-34.4
	c3.8-6.8,10.6-12,16.5-17.4c14.7-13.4,24.4-28.9,20.8-49.6c-1.4-7.9-4.1-15.7-7.4-23c-7.2-16.2-13.7-32.6-10.8-50.7
	c2.9-18.4,6.7-36.6,10.2-54.9c3.7-19.8,6.6-39.6-1.5-59c-2.2-5.2-5.4-10-8.1-15c-0.9,0.3-3.6,6.2-3.7,9c-0.2,9.7-0.1,19.5-0.2,29.2
	c-0.1,18.8-2,37.4-11.1,54.2c-11.6,21.3-15.4,43.7-12.5,67.6c0.5,4.1,0.3,8.4,0,12.6c-1.4,22.4-9.2,41.1-30.1,52.4
	c-25,13.5-45.2,32.2-61.2,55.7c-6.2,9.1-14,17.5-22.2,24.9c-8.2,7.4-19.7,5.9-26.2-2.8c-4-5.3-6.9-11.7-9.1-18
	c-4.9-14.2-10.7-27.7-22.7-37.6c-12.8-10.6-25.2-21.7-37.9-32.5c-33.3-28.1-49-61.7-35.2-105.7c2.4-7.8,2.2-16.6,2-24.9
	c-0.3-14.5-8.9-25.2-17.8-35.6c-10.3-12.2-18.8-25.1-13.8-42.1c7.3-25-0.1-57.8-9.8-78.4C267.8,317.5,262,329.3,256.8,339.8z
	 M544.5,310.8c7.8-2,13.7-6.1,16.9-13.5c4.1-9.4-1.3-30-24.5-16.6c-13.7,7.9-17.2,26.2-14.9,36.6C529,312.1,536.9,312.7,544.5,310.8
	z M348.6,319.6c2.3-10.5-1.2-28.7-14.9-36.6c-23.2-13.4-28.6,7.1-24.5,16.6c3.2,7.4,9.1,11.6,16.9,13.5
	C333.6,314.9,341.6,314.3,348.6,319.6z"/>
</svg>
